inDegrees=no
num_controls=7
num_derivatives=13
num_iterations=159
num_multipliers=7
num_parameters=0
num_slacks=7
num_states=26
objective=0.516728
objective_accelerations=0.039696
objective_balance=0.002204
objective_effort=0.043705
objective_height=0.419495
objective_ligament=0.011628
solver_duration=2098.728866
status=Solve_Succeeded
success=true
DataType=double
version=3
OpenSimVersion=4.5
endheader
time	/jointset/ground_pelvis/pelvis_tilt/value	/jointset/ground_pelvis/pelvis_tx/value	/jointset/ground_pelvis/pelvis_ty/value	/jointset/hip_l/hip_flexion_l/value	/jointset/hip_l/hip_adduction_l/value	/jointset/hip_l/hip_rotation_l/value	/jointset/back/lumbar_extension/value	/jointset/patellofemoral_l/patellar_flexion_l/value	/jointset/knee_l/knee_flexion_l/value	/jointset/knee_l/knee_adduction_l/value	/jointset/knee_l/knee_rotation_l/value	/jointset/ankle_l/ankle_angle_l/value	/jointset/subtalar_l/subtalar_angle_l/value	/jointset/ground_pelvis/pelvis_tilt/speed	/jointset/ground_pelvis/pelvis_tx/speed	/jointset/ground_pelvis/pelvis_ty/speed	/jointset/hip_l/hip_flexion_l/speed	/jointset/hip_l/hip_adduction_l/speed	/jointset/hip_l/hip_rotation_l/speed	/jointset/back/lumbar_extension/speed	/jointset/patellofemoral_l/patellar_flexion_l/speed	/jointset/knee_l/knee_flexion_l/speed	/jointset/knee_l/knee_adduction_l/speed	/jointset/knee_l/knee_rotation_l/speed	/jointset/ankle_l/ankle_angle_l/speed	/jointset/subtalar_l/subtalar_angle_l/speed	/forceset/tau_hip_flexion_l	/forceset/tau_hip_adduction_l	/forceset/tau_hip_rotation_l	/forceset/tau_knee_flexion_l	/forceset/tau_ankle_angle_l	/forceset/tau_subtalar_angle_l	/forceset/tau_lumbar_extension	lambda_cid13_p0	lambda_cid13_p1	lambda_cid13_p2	lambda_cid13_p3	lambda_cid13_p4	lambda_cid13_p5	lambda_cid14_p0	/jointset/ground_pelvis/pelvis_tilt/accel	/jointset/ground_pelvis/pelvis_tx/accel	/jointset/ground_pelvis/pelvis_ty/accel	/jointset/hip_l/hip_flexion_l/accel	/jointset/hip_l/hip_adduction_l/accel	/jointset/hip_l/hip_rotation_l/accel	/jointset/back/lumbar_extension/accel	/jointset/patellofemoral_l/patellar_flexion_l/accel	/jointset/knee_l/knee_flexion_l/accel	/jointset/knee_l/knee_adduction_l/accel	/jointset/knee_l/knee_rotation_l/accel	/jointset/ankle_l/ankle_angle_l/accel	/jointset/subtalar_l/subtalar_angle_l/accel	gamma_cid13_p0	gamma_cid13_p1	gamma_cid13_p2	gamma_cid13_p3	gamma_cid13_p4	gamma_cid13_p5	gamma_cid14_p0
1.5	-0.01419551861653887	-0.0258476036022069	0.8686553865632621	0.6319552194619591	-0.3126341079894774	-0.1778312102275055	-0.785593542625914	0.6394497698410412	0.6394497698410333	-0.1084260226953292	-0.1745283242485451	0.07011114520161452	0.005556321491331225	0.3863218060210674	0.2786059090672003	0.3434210230085868	-1.864589106845198	0.09425932688061434	-0.5359873125004871	0.8411369440294173	-1.639990846506708	-1.639990846506686	-0.1258766280352115	9.634760049306179e-06	-0.2502449540619875	0.02155324975600032	-0.205044236278422	0.01639026214987938	-0.003862804438260142	-0.1909240412513446	0.0971872667486605	0.04484141752696788	0.2810708054025655	-11.44743784817079	-19.62502874737088	5.135718339385231	-8.677685931345518	-673.4486174734781	-79.73929106443312	-19.92684471918033	-0.007460909571237702	0.6337975588615362	-0.4982509268802559	-0.6419481112055099	0.3193027917587253	-0.2166357127109398	1.766114869376862	-0.6406833501140703	-0.6406833501140707	-0.2976478925608452	0.03518300838000363	0.03275418489077584	0.3400345452025378	2.738426187679814e-09	1.026474321906108e-06	1.419493852617158e-07	1.575536467452941e-07	8.565536173781868e-08	1.502749941542328e-07	1.010746286064135e-07
1.51	-0.01033311724758662	-0.02303013356248546	0.872064023514721	0.6132792842482728	-0.3116760105864433	-0.1832030638173336	-0.7770950875641893	0.6230199231391174	0.6230199231391398	-0.1096995745172755	-0.1745282664623382	0.06761066614438579	0.005788460890064824	0.386105810049839	0.2848567388345347	0.3382412627094039	-1.870361334100057	0.09735214830091539	-0.538331366056073	0.8584380221650454	-1.645757226014042	-1.645757226014021	-0.1288274506311933	1.146353835637892e-07	-0.2498004303909765	0.02488050155099616	-0.1975502585256877	0.01554064961347491	-0.003830410690639372	-0.1883221974294069	0.09683193343281724	0.04393746135573556	0.2740866578518176	-11.37018676316264	-19.29327286127767	5.136862435828918	-8.466558704031169	-669.6962357498378	-79.65052107883602	-20.40154695723101	-0.03657751403304767	0.6160548468019067	-0.5375880540625896	-0.509381783745841	0.3028978611935436	-0.2354037298960182	1.69469736307562	-0.511444415847686	-0.5114444158478659	-0.29265987690963	-0.01927798931987849	0.05789335719069445	0.3297604057556509	-6.30280111924025e-09	1.053172862160004e-06	1.744104489708346e-07	1.630209740556131e-07	8.262716762436571e-08	1.499709898821403e-07	9.820183279906438e-08
1.52	-0.006474457552974192	-0.02015108939286418	0.8754189129686629	0.5945527224118133	-0.3106872597604011	-0.1885967806533004	-0.7684271031056246	0.6065390468091607	0.6065390468092111	-0.1110024066519417	-0.1745283555706609	0.06511615070366399	0.006054010788569872	0.3855734711532358	0.2909207350471652	0.3326715235052096	-1.874714431399704	0.1003900114823268	-0.5403599617282031	0.8750428233974678	-1.65019677211356	-1.65019677211354	-0.1317326905788862	-1.974414648296854e-05	-0.2490522307605883	0.02823534971029373	-0.1900562807729541	0.01469103707706938	-0.003798016943037817	-0.1857203536074683	0.0964766001169737	0.043033505184502	0.2671025103010695	-11.29864224280135	-18.96060241012682	5.137957312385374	-8.259343101738249	-666.0416504831175	-79.57984866073255	-20.8525678738706	-0.07072949464619198	0.5964308479207484	-0.5762467078825027	-0.3581221201630759	0.308311143980797	-0.1535441360198082	1.626859488735693	-0.3753166685508091	-0.375316668550809	-0.2885313629030519	0.03311527693984911	0.09348937676621388	0.3455538180628875	-6.016667079620205e-09	1.051613053426206e-06	1.58243555935201e-07	1.600721636203878e-07	8.689723796961082e-08	1.548813643684942e-07	9.885292245432501e-08
1.53	-0.002622719604983836	-0.01721238699978716	0.878716215861303	0.5757897162810607	-0.3096684596140321	-0.1940089598231309	-0.7595966438767288	0.5900203845599803	0.5900203845599714	-0.1123342811539095	-0.1745285051370611	0.06263061629950685	0.006353182364257959	0.3847194666930108	0.2967832712728941	0.3267298778308119	-1.877646764821558	0.1033584866200852	-0.5420230791871797	0.8909232087751897	-1.653312115515336	-1.653312115515322	-0.1346350581302339	-1.195720155343215e-05	-0.2480041831322549	0.03160139327360553	-0.1824760582380388	0.01373617573673542	-0.003821864446397052	-0.1832610114156056	0.09625745022033266	0.04207708140561136	0.2600594778450933	-11.19544008270988	-18.60821307095681	5.13308113369134	-8.042158427559883	-662.5298714440927	-79.49444705672528	-21.27707456717311	-0.1009413382990284	0.5757225286868326	-0.6119790042025359	-0.2247933650254735	0.2892377032039311	-0.1646878633075196	1.549756021300849	-0.2461299651147651	-0.2461299651157078	-0.2898385749757139	-0.01567050678174876	0.1180579041049312	0.3323290994027936	4.179788390698596e-09	1.020028748892984e-06	9.040945885826871e-08	1.481812068305216e-07	9.892171430222253e-08	1.653320162856972e-07	1.032481404136084e-07
1.54	0.001218837215085534	-0.01421614774069529	0.8819523311958022	0.5570045859337223	-0.3086203503153805	-0.1994361686300458	-0.7506111552022536	0.5734772715189554	0.5734772715188907	-0.1136949291561334	-0.1745286330160248	0.06015708146128046	0.006686054270366644	0.3835372455692541	0.3024281082501351	0.3204340118770477	-1.87913927471657	0.1062518419390689	-0.5433658891449948	0.9060487125133291	-1.655086930482066	-1.655086930482059	-0.1374873906305867	-1.54066586737446e-05	-0.2466523175744004	0.03497541579441585	-0.1748958357031293	0.01278131439639578	-0.003845711949728103	-0.1808016692237472	0.09603830032368967	0.04112065762671514	0.2530164453891147	-11.0982140540792	-18.25437309028958	5.127512013580278	-7.827745864595372	-659.1194519587659	-79.42924340118944	-21.67230122144461	-0.136372827352551	0.5528909982231592	-0.6470907637557912	-0.07015741479492288	0.2932871802258575	-0.08948263578753018	1.475883160819163	-0.1072109815417386	-0.1072109815417387	-0.278524352704091	0.03086799652988583	0.1542529626704428	0.3471496095625988	7.299529371950376e-09	9.957855035563398e-07	5.794170666391331e-08	1.405687584955864e-07	1.049267481270609e-07	1.694187262515067e-07	1.035741583658987e-07
